<svg width="1190" height="585" viewBox="0 0 1190 585" fill="none" xmlns="http://www.w3.org/2000/svg"><path d="M1185 335C1187.76 335 1190 332.761 1190 330V290C1190 287.239 1187.76 285 1185 285L945 285C942.239 285 940 287.239 940 290V330C940 332.761 942.239 335 945 335H1185Z" fill="#D9D9D9"/>
<path d="M1085 535C1087.76 535 1090 532.761 1090 530V390C1090 387.239 1087.76 385 1085 385H1045C1042.24 385 1040 387.239 1040 390V530C1040 532.761 1042.24 535 1045 535H1085Z" fill="#D9D9D9"/>
<path d="M860 285C857.239 285 855 287.239 855 290V330C855 332.761 857.239 335 860 335H900C902.761 335 905 332.761 905 330V290C905 287.239 902.761 285 900 285H860Z" fill="#D9D9D9"/>
<path d="M860 385C857.239 385 855 387.239 855 390V530C855 532.761 857.239 535 860 535H900C902.761 535 905 532.761 905 530V390C905 387.239 902.761 385 900 385H860Z" fill="#D9D9D9"/>
<path d="M575 285C572.239 285 570 287.239 570 290V330C570 332.761 572.239 335 575 335H765C767.761 335 770 337.239 770 340V480C770 482.761 767.761 485 765 485H625C622.239 485 620 482.761 620 480V393C620 390.239 617.761 388 615 388H575C572.239 388 570 390.239 570 393V488L570 530C570 532.761 572.239 535 575 535H815C817.761 535 820 532.761 820 530V290C820 287.239 817.761 285 815 285H575Z" fill="#D9D9D9"/>
<path d="M290 535C287.239 535 285 532.761 285 530V290C285 287.239 287.239 285 290 285H330C332.761 285 335 287.239 335 290V480C335 482.761 337.239 485 340 485H480C482.761 485 485 482.761 485 480V290C485 287.239 487.239 285 490 285H530C532.761 285 535 287.239 535 290V530C535 532.761 532.761 535 530 535H290Z" fill="#D9D9D9"/>
<path d="M245 535C247.761 535 250 532.761 250 530V285L5.00003 285C2.2386 285 3.04197e-05 287.239 3.0299e-05 290L3.46856e-05 530C3.47756e-05 532.761 2.23861 535 5.00003 535H45C47.7615 535 50 532.761 50 530L50 340C50 337.239 52.2386 335 55 335H195C197.761 335 200 337.239 200 340L200 530C200 532.761 202.239 535 205 535H245Z" fill="#D9D9D9"/>
<path d="M75 436C75 438.761 77.2386 441 80 441H170C172.761 441 175 438.761 175 436V396C175 393.239 172.761 391 170 391H80.0001C77.2386 391 75.0001 393.239 75.0001 396L75 436Z" fill="#D9D9D9"/>
<path d="M1185 250C1187.76 250 1190 247.761 1190 245V5.00002C1190 2.23859 1187.76 1.80927e-05 1185 1.7972e-05L945 0C942.239 -2.26649e-07 940 2.23858 940 5V245C940 247.761 942.239 250 945 250L985 250C987.761 250 990 247.761 990 245V55C990 52.2386 992.239 50 995 50L1135 50C1137.76 50 1140 52.2386 1140 55V245C1140 247.761 1142.24 250 1145 250H1185Z" fill="#D9D9D9"/>
<path d="M1085 200C1087.76 200 1090 197.762 1090 195V105C1090 102.239 1087.76 100 1085 100H1045C1042.24 100 1040 102.239 1040 105V195C1040 197.762 1042.24 200 1045 200H1085Z" fill="#D9D9D9"/>
<path d="M905 5.00002C905 2.23859 902.761 1.81906e-05 900 1.81906e-05H660C657.239 1.81906e-05 655 2.2386 655 5.00002V45C655 47.7614 657.239 50 660 50H900C902.761 50 905 47.7614 905 45V5.00002Z" fill="#D9D9D9"/>
<path d="M750 105C750 102.238 752.239 99.9998 755 99.9998H904C904.552 99.9998 905 100.447 905 101V248C905 249.104 904.104 250 903 250H660C657.239 250 655 247.761 655 245V105C655 102.239 657.239 100 660 100H700C702.761 100 705 102.239 705 105V195C705 197.761 707.239 200 710 200H850C852.761 200 855 197.761 855 195V155C855 152.238 852.761 150 850 150H755C752.239 150 750 147.761 750 145V105Z" fill="#D9D9D9"/>
<path d="M575 0.000297239C572.239 0.000297206 570 2.23887 570 5.0003V45.0003C570 47.7617 572.239 50.0003 575 50.0003H615C617.761 50.0003 620 47.7617 620 45.0003V5.0003C620 2.23887 617.761 0.000297749 615 0.000297716L575 0.000297239Z" fill="#D9D9D9"/>
<path d="M575 100C572.239 100 570 102.239 570 105V245C570 247.762 572.239 250 575 250H615C617.761 250 620 247.762 620 245V105C620 102.239 617.761 100 615 100H575Z" fill="#D9D9D9"/>
<path d="M430 0.000250914C432.761 0.000250526 435 2.23883 435 5.00025V45.0003C435 47.7617 432.761 50.0003 430 50.0003H340C337.239 50.0003 335 52.2388 335 55.0003V245C335 247.762 332.761 250 330 250H290C287.239 250 285 247.762 285 245V5.00025C285 2.23883 287.239 0.000249132 290 0.000250008L430 0.000250914Z" fill="#D9D9D9"/>
<path d="M385 105C385 102.239 387.239 100 390 100H430C432.761 100 435 102.239 435 105V195C435 197.762 437.239 200 440 200H480C482.761 200 485 197.762 485 195V5.00027C485 2.23884 487.239 0.000266093 490 0.000266126L530 0.000266602C532.761 0.000266635 535 2.23884 535 5.00026V245C535 247.762 532.761 250 530 250L390 250C387.239 250 385 247.762 385 245V105Z" fill="#D9D9D9"/>
<path d="M5 1.81906e-05C2.23858 1.81906e-05 0 2.2386 0 5.00002V45C0 47.7614 2.23857 50 5 50H245C247.761 50 250 47.7614 250 45V5.00002C250 2.23859 247.761 1.81906e-05 245 1.81906e-05H5Z" fill="#D9D9D9"/>
<path d="M0.999999 100C0.447714 100 0 100.448 0 101V248C0 249.105 0.895431 250 2 250H245C247.761 250 250 247.761 250 245V205C250 202.239 247.761 200 245 200H55C52.2386 200 50 197.761 50 195V155C50 152.239 52.2386 150 55 150H195C197.761 150 200 147.761 200 145V105C200 102.239 197.761 100 195 100H0.999999Z" fill="#D9D9D9"/>
</svg>
