<?xml version="1.0" standalone="no"?>
<!DOCTYPE svg PUBLIC "-//W3C//DTD SVG 20010904//EN"
 "http://www.w3.org/TR/2001/REC-SVG-20010904/DTD/svg10.dtd">
<svg version="1.0" xmlns="http://www.w3.org/2000/svg"
 width="500.000000pt" height="500.000000pt" viewBox="0 0 500.000000 500.000000"
 preserveAspectRatio="xMidYMid meet">
<metadata>
Created by potrace 1.14, written by Peter Selinger 2001-2017
</metadata>
<g transform="translate(0.000000,500.000000) scale(0.100000,-0.100000)"
fill="#000000" stroke="none">
<path d="M0 2500 l0 -2500 2500 0 2500 0 0 2500 0 2500 -2500 0 -2500 0 0
-2500z m2570 1331 c6 -11 10 -88 10 -180 0 -132 -3 -162 -16 -175 -14 -14
-113 -16 -940 -16 -619 0 -932 3 -945 10 -18 10 -19 23 -19 183 0 121 4 177
12 185 9 9 234 12 950 12 916 0 938 0 948 -19z m-392 -763 c17 -17 17 -349 0
-366 -9 -9 -148 -12 -563 -12 -415 0 -554 -3 -563 -12 -15 -15 -17 -320 -2
-349 10 -18 29 -19 690 -19 l680 0 0 369 c0 323 2 372 16 385 14 14 115 16
960 16 l944 0 0 -953 c0 -728 -3 -956 -12 -965 -13 -13 -321 -18 -352 -6 -14
6 -16 81 -16 753 0 582 -3 751 -12 764 -12 16 -55 17 -573 15 l-560 -3 -5
-755 c-3 -415 -9 -761 -13 -767 -6 -10 -54 -13 -182 -13 -162 0 -175 1 -185
19 -6 13 -10 152 -10 385 l0 366 -877 2 -878 3 -3 578 -2 577 753 0 c572 0
756 -3 765 -12z m1576 -780 c23 -33 23 -329 0 -352 -13 -14 -61 -16 -373 -16
-264 0 -360 3 -369 12 -8 8 -12 64 -12 185 0 153 2 173 18 182 10 7 149 11
369 11 l352 0 15 -22z"/>
</g>
</svg>
